<svg xmlns="http://www.w3.org/2000/svg" viewBox="0 0 512 512" width="512" height="512">
  <rect width="512" height="512" rx="96" fill="#fafafa"/>
  <g fill="#56805A" transform="translate(256 358)">
    <path opacity=".62" transform="rotate(-64)" d="M0 0 C-30 -58 -28 -140 0 -206 C28 -140 30 -58 0 0Z"/>
    <path opacity=".62" transform="rotate(64)" d="M0 0 C-30 -58 -28 -140 0 -206 C28 -140 30 -58 0 0Z"/>
    <path opacity=".82" transform="rotate(-32)" d="M0 0 C-30 -58 -28 -140 0 -206 C28 -140 30 -58 0 0Z"/>
    <path opacity=".82" transform="rotate(32)" d="M0 0 C-30 -58 -28 -140 0 -206 C28 -140 30 -58 0 0Z"/>
    <path d="M0 0 C-30 -58 -28 -140 0 -206 C28 -140 30 -58 0 0Z"/>
  </g>
  <circle cx="256" cy="352" r="30" fill="#fafafa" opacity=".55"/>
</svg>
